<?xml version="1.0" encoding="UTF-8" standalone="no"?>
<!DOCTYPE svg PUBLIC "-//W3C//DTD SVG 1.1//EN"
 "http://www.w3.org/Graphics/SVG/1.1/DTD/svg11.dtd">
<!-- Generated by graphviz version 2.43.0 (0)
 -->
<!-- Title: wordcount03 Pages: 1 -->
<svg width="100%" height="100%" xmlns="http://www.w3.org/2000/svg" xmlns:xlink="http://www.w3.org/1999/xlink">
<script type="text/ecmascript"><![CDATA[
/**
 *  SVGPan library 1.2.2
 * ======================
 *
 * Given an unique existing element with id "viewport" (or when missing, the
 * first g-element), including the library into any SVG adds the following
 * capabilities:
 *
 *  - Mouse panning
 *  - Mouse zooming (using the wheel)
 *  - Object dragging
 *
 * You can configure the behaviour of the pan/zoom/drag with the variables
 * listed in the CONFIGURATION section of this file.
 *
 * Known issues:
 *
 *  - Zooming (while panning) on Safari has still some issues
 *
 * Releases:
 *
 * 1.2.2, Tue Aug 30 17:21:56 CEST 2011, Andrea Leofreddi
 *	- Fixed viewBox on root tag (#7)
 *	- Improved zoom speed (#2)
 *
 * 1.2.1, Mon Jul  4 00:33:18 CEST 2011, Andrea Leofreddi
 *	- Fixed a regression with mouse wheel (now working on Firefox 5)
 *	- Working with viewBox attribute (#4)
 *	- Added "use strict;" and fixed resulting warnings (#5)
 *	- Added configuration variables, dragging is disabled by default (#3)
 *
 * 1.2, Sat Mar 20 08:42:50 GMT 2010, Zeng Xiaohui
 *	Fixed a bug with browser mouse handler interaction
 *
 * 1.1, Wed Feb  3 17:39:33 GMT 2010, Zeng Xiaohui
 *	Updated the zoom code to support the mouse wheel on Safari/Chrome
 *
 * 1.0, Andrea Leofreddi
 *	First release
 *
 * This code is licensed under the following BSD license:
 *
 * Copyright 2009-2017 Andrea Leofreddi <a.leofreddi@vleo.net>. All rights reserved.
 *
 * Redistribution and use in source and binary forms, with or without modification, are
 * permitted provided that the following conditions are met:
 *
 *    1. Redistributions of source code must retain the above copyright
 *       notice, this list of conditions and the following disclaimer.
 *    2. Redistributions in binary form must reproduce the above copyright
 *       notice, this list of conditions and the following disclaimer in the
 *       documentation and/or other materials provided with the distribution.
 *    3. Neither the name of the copyright holder nor the names of its
 *       contributors may be used to endorse or promote products derived from
 *       this software without specific prior written permission.
 *
 * THIS SOFTWARE IS PROVIDED BY COPYRIGHT HOLDERS AND CONTRIBUTORS ''AS IS'' AND ANY EXPRESS
 * OR IMPLIED WARRANTIES, INCLUDING, BUT NOT LIMITED TO, THE IMPLIED WARRANTIES OF MERCHANTABILITY
 * AND FITNESS FOR A PARTICULAR PURPOSE ARE DISCLAIMED. IN NO EVENT SHALL COPYRIGHT HOLDERS OR
 * CONTRIBUTORS BE LIABLE FOR ANY DIRECT, INDIRECT, INCIDENTAL, SPECIAL, EXEMPLARY, OR
 * CONSEQUENTIAL DAMAGES (INCLUDING, BUT NOT LIMITED TO, PROCUREMENT OF SUBSTITUTE GOODS OR
 * SERVICES; LOSS OF USE, DATA, OR PROFITS; OR BUSINESS INTERRUPTION) HOWEVER CAUSED AND ON
 * ANY THEORY OF LIABILITY, WHETHER IN CONTRACT, STRICT LIABILITY, OR TORT (INCLUDING
 * NEGLIGENCE OR OTHERWISE) ARISING IN ANY WAY OUT OF THE USE OF THIS SOFTWARE, EVEN IF
 * ADVISED OF THE POSSIBILITY OF SUCH DAMAGE.
 *
 * The views and conclusions contained in the software and documentation are those of the
 * authors and should not be interpreted as representing official policies, either expressed
 * or implied, of Andrea Leofreddi.
 */

"use strict";

/// CONFIGURATION
/// ====>

var enablePan = 1; // 1 or 0: enable or disable panning (default enabled)
var enableZoom = 1; // 1 or 0: enable or disable zooming (default enabled)
var enableDrag = 0; // 1 or 0: enable or disable dragging (default disabled)
var zoomScale = 0.2; // Zoom sensitivity

/// <====
/// END OF CONFIGURATION

var root = document.documentElement;

var state = 'none', svgRoot = null, stateTarget, stateOrigin, stateTf;

setupHandlers(root);

/**
 * Register handlers
 */
function setupHandlers(root){
	setAttributes(root, {
		"onmouseup" : "handleMouseUp(evt)",
		"onmousedown" : "handleMouseDown(evt)",
		"onmousemove" : "handleMouseMove(evt)",
		//"onmouseout" : "handleMouseUp(evt)", // Decomment this to stop the pan functionality when dragging out of the SVG element
	});

	if(navigator.userAgent.toLowerCase().indexOf('webkit') >= 0)
		window.addEventListener('mousewheel', handleMouseWheel, false); // Chrome/Safari
	else
		window.addEventListener('DOMMouseScroll', handleMouseWheel, false); // Others
}

/**
 * Retrieves the root element for SVG manipulation. The element is then cached into the svgRoot global variable.
 */
function getRoot(root) {
	if(svgRoot == null) {
		var r = root.getElementById("viewport") ? root.getElementById("viewport") : root.documentElement, t = r;

		while(t != root) {
			if(t.getAttribute("viewBox")) {
				setCTM(r, t.getCTM());

				t.removeAttribute("viewBox");
			}

			t = t.parentNode;
		}

		svgRoot = r;
	}

	return svgRoot;
}

/**
 * Instance an SVGPoint object with given event coordinates.
 */
function getEventPoint(evt) {
	var p = root.createSVGPoint();

	p.x = evt.clientX;
	p.y = evt.clientY;

	return p;
}

/**
 * Sets the current transform matrix of an element.
 */
function setCTM(element, matrix) {
	var s = "matrix(" + matrix.a + "," + matrix.b + "," + matrix.c + "," + matrix.d + "," + matrix.e + "," + matrix.f + ")";

	element.setAttribute("transform", s);
}

/**
 * Dumps a matrix to a string (useful for debug).
 */
function dumpMatrix(matrix) {
	var s = "[ " + matrix.a + ", " + matrix.c + ", " + matrix.e + "\n  " + matrix.b + ", " + matrix.d + ", " + matrix.f + "\n  0, 0, 1 ]";

	return s;
}

/**
 * Sets attributes of an element.
 */
function setAttributes(element, attributes){
	for (var i in attributes)
		element.setAttributeNS(null, i, attributes[i]);
}

/**
 * Handle mouse wheel event.
 */
function handleMouseWheel(evt) {
	if(!enableZoom)
		return;

	if(evt.preventDefault)
		evt.preventDefault();

	evt.returnValue = false;

	var svgDoc = evt.target.ownerDocument;

	var delta;

	if(evt.wheelDelta)
		delta = evt.wheelDelta / 360; // Chrome/Safari
	else
		delta = evt.detail / -9; // Mozilla

	var z = Math.pow(1 + zoomScale, delta);

	var g = getRoot(svgDoc);
	
	var p = getEventPoint(evt);

	p = p.matrixTransform(g.getCTM().inverse());

	// Compute new scale matrix in current mouse position
	var k = root.createSVGMatrix().translate(p.x, p.y).scale(z).translate(-p.x, -p.y);

        setCTM(g, g.getCTM().multiply(k));

	if(typeof(stateTf) == "undefined")
		stateTf = g.getCTM().inverse();

	stateTf = stateTf.multiply(k.inverse());
}

/**
 * Handle mouse move event.
 */
function handleMouseMove(evt) {
	if(evt.preventDefault)
		evt.preventDefault();

	evt.returnValue = false;

	var svgDoc = evt.target.ownerDocument;

	var g = getRoot(svgDoc);

	if(state == 'pan' && enablePan) {
		// Pan mode
		var p = getEventPoint(evt).matrixTransform(stateTf);

		setCTM(g, stateTf.inverse().translate(p.x - stateOrigin.x, p.y - stateOrigin.y));
	} else if(state == 'drag' && enableDrag) {
		// Drag mode
		var p = getEventPoint(evt).matrixTransform(g.getCTM().inverse());

		setCTM(stateTarget, root.createSVGMatrix().translate(p.x - stateOrigin.x, p.y - stateOrigin.y).multiply(g.getCTM().inverse()).multiply(stateTarget.getCTM()));

		stateOrigin = p;
	}
}

/**
 * Handle click event.
 */
function handleMouseDown(evt) {
	if(evt.preventDefault)
		evt.preventDefault();

	evt.returnValue = false;

	var svgDoc = evt.target.ownerDocument;

	var g = getRoot(svgDoc);

	if(
		evt.target.tagName == "svg"
		|| !enableDrag // Pan anyway when drag is disabled and the user clicked on an element
	) {
		// Pan mode
		state = 'pan';

		stateTf = g.getCTM().inverse();

		stateOrigin = getEventPoint(evt).matrixTransform(stateTf);
	} else {
		// Drag mode
		state = 'drag';

		stateTarget = evt.target;

		stateTf = g.getCTM().inverse();

		stateOrigin = getEventPoint(evt).matrixTransform(stateTf);
	}
}

/**
 * Handle mouse button release event.
 */
function handleMouseUp(evt) {
	if(evt.preventDefault)
		evt.preventDefault();

	evt.returnValue = false;

	var svgDoc = evt.target.ownerDocument;

	if(state == 'pan' || state == 'drag') {
		// Quit pan mode
		state = '';
	}
}
]]></script><g id="viewport" transform="scale(0.5,0.5) translate(0,0)"><g id="graph0" class="graph" transform="scale(1 1) rotate(0) translate(4 1331)">
<title>wordcount03</title>
<polygon fill="white" stroke="transparent" points="-4,4 -4,-1331 1331.5,-1331 1331.5,4 -4,4"/>
<g id="clust1" class="cluster">
<title>cluster_L</title>
<polygon fill="none" stroke="black" points="8,-1186 8,-1319 562,-1319 562,-1186 8,-1186"/>
</g>
<!-- File: wordcount03 -->
<g id="node1" class="node">
<title>File: wordcount03</title>
<g id="a_node1"><a xlink:title="wordcount03">
<polygon fill="#f8f8f8" stroke="black" points="553.5,-1311 16.5,-1311 16.5,-1194 553.5,-1194 553.5,-1311"/>
<text text-anchor="start" x="24.5" y="-1294.2" font-family="Times,serif" font-size="16.00">File: wordcount03</text>
<text text-anchor="start" x="24.5" y="-1276.2" font-family="Times,serif" font-size="16.00">Type: inuse_space</text>
<text text-anchor="start" x="24.5" y="-1258.2" font-family="Times,serif" font-size="16.00">Time: Mar 10, 2023 at 11:00am (UTC)</text>
<text text-anchor="start" x="24.5" y="-1240.2" font-family="Times,serif" font-size="16.00">Showing nodes accounting for 25.52kB, 100% of 25.52kB total</text>
<text text-anchor="start" x="24.5" y="-1203.2" font-family="Times,serif" font-size="16.00">See https://git.io/JfYMW for how to read the graph</text>
</a>
</g>
</g>
<!-- N1 -->
<g id="node1" class="node">
<title>N1</title>
<g id="a_node1"><a xlink:title="runtime.main (12.28kB)">
<polygon fill="#eddad5" stroke="#b22300" points="784.5,-1298.5 571.5,-1298.5 571.5,-1206.5 784.5,-1206.5 784.5,-1298.5"/>
<text text-anchor="middle" x="678" y="-1279.3" font-family="Times,serif" font-size="19.00">runtime</text>
<text text-anchor="middle" x="678" y="-1258.3" font-family="Times,serif" font-size="19.00">main</text>
<text text-anchor="middle" x="678" y="-1237.3" font-family="Times,serif" font-size="19.00">4.05kB (15.86%)</text>
<text text-anchor="middle" x="678" y="-1216.3" font-family="Times,serif" font-size="19.00">of 12.28kB (48.10%)</text>
</a>
</g>
</g>
<!-- NN1_0 -->
<g id="NN1_0" class="node">
<title>NN1_0</title>
<g id="a_NN1_0"><a xlink:title="4.05kB">
<polygon fill="#f8f8f8" stroke="black" points="705,-1139 655,-1139 651,-1135 651,-1103 701,-1103 705,-1107 705,-1139"/>
<polyline fill="none" stroke="black" points="701,-1135 651,-1135 "/>
<polyline fill="none" stroke="black" points="701,-1135 701,-1103 "/>
<polyline fill="none" stroke="black" points="701,-1135 705,-1139 "/>
<text text-anchor="middle" x="678" y="-1119.1" font-family="Times,serif" font-size="8.00">96B</text>
</a>
</g>
</g>
<!-- N1&#45;&gt;NN1_0 -->
<g id="edge1" class="edge">
<title>N1&#45;&gt;NN1_0</title>
<g id="a_edge1"><a xlink:title="4.05kB">
<path fill="none" stroke="black" d="M678,-1206.21C678,-1187.18 678,-1165.68 678,-1149.17"/>
<polygon fill="black" stroke="black" points="681.5,-1149.12 678,-1139.12 674.5,-1149.12 681.5,-1149.12"/>
</a>
</g>
<g id="a_edge1&#45;label"><a xlink:title="4.05kB">
<text text-anchor="middle" x="705.5" y="-1164.8" font-family="Times,serif" font-size="14.00"> 4.05kB</text>
</a>
</g>
</g>
<!-- N6 -->
<g id="node6" class="node">
<title>N6</title>
<g id="a_node6"><a xlink:title="runtime.doInit (8.23kB)">
<polygon fill="#eddcd5" stroke="#b23300" points="798.5,-1048 697.5,-1048 697.5,-1012 798.5,-1012 798.5,-1048"/>
<text text-anchor="middle" x="748" y="-1037.1" font-family="Times,serif" font-size="8.00">runtime</text>
<text text-anchor="middle" x="748" y="-1028.1" font-family="Times,serif" font-size="8.00">doInit</text>
<text text-anchor="middle" x="748" y="-1019.1" font-family="Times,serif" font-size="8.00">0 of 8.23kB (32.24%)</text>
</a>
</g>
</g>
<!-- N1&#45;&gt;N6 -->
<g id="edge14" class="edge">
<title>N1&#45;&gt;N6</title>
<g id="a_edge14"><a xlink:title="runtime.main &#45;&gt; runtime.doInit (8.23kB)">
<path fill="none" stroke="#b23300" stroke-width="2" d="M717.52,-1206.32C724.03,-1196.84 729.96,-1186.51 734,-1176 748.96,-1137.11 750.46,-1088.21 749.63,-1058.3"/>
<polygon fill="#b23300" stroke="#b23300" stroke-width="2" points="753.13,-1058.05 749.24,-1048.2 746.13,-1058.32 753.13,-1058.05"/>
</a>
</g>
<g id="a_edge14&#45;label"><a xlink:title="runtime.main &#45;&gt; runtime.doInit (8.23kB)">
<text text-anchor="middle" x="776.5" y="-1117.3" font-family="Times,serif" font-size="14.00"> 8.23kB</text>
</a>
</g>
</g>
<!-- N2 -->
<g id="node2" class="node">
<title>N2</title>
<g id="a_node2"><a xlink:title="runtime.allocm (9.04kB)">
<polygon fill="#eddbd5" stroke="#b22f00" points="1190.5,-426 973.5,-426 973.5,-340 1190.5,-340 1190.5,-426"/>
<text text-anchor="middle" x="1082" y="-402.8" font-family="Times,serif" font-size="24.00">runtime</text>
<text text-anchor="middle" x="1082" y="-376.8" font-family="Times,serif" font-size="24.00">allocm</text>
<text text-anchor="middle" x="1082" y="-350.8" font-family="Times,serif" font-size="24.00">9.04kB (35.42%)</text>
</a>
</g>
</g>
<!-- NN2_0 -->
<g id="NN2_0" class="node">
<title>NN2_0</title>
<g id="a_NN2_0"><a xlink:title="9.04kB">
<polygon fill="#f8f8f8" stroke="black" points="1109,-285 1059,-285 1055,-281 1055,-249 1105,-249 1109,-253 1109,-285"/>
<polyline fill="none" stroke="black" points="1105,-281 1055,-281 "/>
<polyline fill="none" stroke="black" points="1105,-281 1105,-249 "/>
<polyline fill="none" stroke="black" points="1105,-281 1109,-285 "/>
<text text-anchor="middle" x="1082" y="-265.1" font-family="Times,serif" font-size="8.00">1kB</text>
</a>
</g>
</g>
<!-- N2&#45;&gt;NN2_0 -->
<g id="edge2" class="edge">
<title>N2&#45;&gt;NN2_0</title>
<g id="a_edge2"><a xlink:title="9.04kB">
<path fill="none" stroke="black" d="M1082,-339.87C1082,-325.11 1082,-308.91 1082,-295.63"/>
<polygon fill="black" stroke="black" points="1085.5,-295.27 1082,-285.27 1078.5,-295.27 1085.5,-295.27"/>
</a>
</g>
<g id="a_edge2&#45;label"><a xlink:title="9.04kB">
<text text-anchor="middle" x="1109.5" y="-310.8" font-family="Times,serif" font-size="14.00"> 9.04kB</text>
</a>
</g>
</g>
<!-- N3 -->
<g id="node3" class="node">
<title>N3</title>
<g id="a_node3"><a xlink:title="runtime.mstart (9.04kB)">
<polygon fill="#eddbd5" stroke="#b22f00" points="1132.5,-1270.5 1031.5,-1270.5 1031.5,-1234.5 1132.5,-1234.5 1132.5,-1270.5"/>
<text text-anchor="middle" x="1082" y="-1259.6" font-family="Times,serif" font-size="8.00">runtime</text>
<text text-anchor="middle" x="1082" y="-1250.6" font-family="Times,serif" font-size="8.00">mstart</text>
<text text-anchor="middle" x="1082" y="-1241.6" font-family="Times,serif" font-size="8.00">0 of 9.04kB (35.42%)</text>
</a>
</g>
</g>
<!-- N17 -->
<g id="node17" class="node">
<title>N17</title>
<g id="a_node17"><a xlink:title="runtime.mstart0 (9.04kB)">
<polygon fill="#eddbd5" stroke="#b22f00" points="1132.5,-1139 1031.5,-1139 1031.5,-1103 1132.5,-1103 1132.5,-1139"/>
<text text-anchor="middle" x="1082" y="-1128.1" font-family="Times,serif" font-size="8.00">runtime</text>
<text text-anchor="middle" x="1082" y="-1119.1" font-family="Times,serif" font-size="8.00">mstart0</text>
<text text-anchor="middle" x="1082" y="-1110.1" font-family="Times,serif" font-size="8.00">0 of 9.04kB (35.42%)</text>
</a>
</g>
</g>
<!-- N3&#45;&gt;N17 -->
<g id="edge6" class="edge">
<title>N3&#45;&gt;N17</title>
<g id="a_edge6"><a xlink:title="runtime.mstart &#45;&gt; runtime.mstart0 (9.04kB)">
<path fill="none" stroke="#b22f00" stroke-width="2" d="M1082,-1234.3C1082,-1212.63 1082,-1175.12 1082,-1149.46"/>
<polygon fill="#b22f00" stroke="#b22f00" stroke-width="2" points="1085.5,-1149.27 1082,-1139.27 1078.5,-1149.27 1085.5,-1149.27"/>
</a>
</g>
<g id="a_edge6&#45;label"><a xlink:title="runtime.mstart &#45;&gt; runtime.mstart0 (9.04kB)">
<text text-anchor="middle" x="1109.5" y="-1164.8" font-family="Times,serif" font-size="14.00"> 9.04kB</text>
</a>
</g>
</g>
<!-- N4 -->
<g id="node4" class="node">
<title>N4</title>
<g id="a_node4"><a xlink:title="runtime.malg (4.21kB)">
<polygon fill="#ede1d9" stroke="#b25c1f" points="1327.5,-961 1150.5,-961 1150.5,-890 1327.5,-890 1327.5,-961"/>
<text text-anchor="middle" x="1239" y="-941.8" font-family="Times,serif" font-size="19.00">runtime</text>
<text text-anchor="middle" x="1239" y="-920.8" font-family="Times,serif" font-size="19.00">malg</text>
<text text-anchor="middle" x="1239" y="-899.8" font-family="Times,serif" font-size="19.00">4.21kB (16.48%)</text>
</a>
</g>
</g>
<!-- NN4_0 -->
<g id="NN4_0" class="node">
<title>NN4_0</title>
<g id="a_NN4_0"><a xlink:title="4.21kB">
<polygon fill="#f8f8f8" stroke="black" points="1266,-821.5 1216,-821.5 1212,-817.5 1212,-785.5 1262,-785.5 1266,-789.5 1266,-821.5"/>
<polyline fill="none" stroke="black" points="1262,-817.5 1212,-817.5 "/>
<polyline fill="none" stroke="black" points="1262,-817.5 1262,-785.5 "/>
<polyline fill="none" stroke="black" points="1262,-817.5 1266,-821.5 "/>
<text text-anchor="middle" x="1239" y="-801.6" font-family="Times,serif" font-size="8.00">416B</text>
</a>
</g>
</g>
<!-- N4&#45;&gt;NN4_0 -->
<g id="edge3" class="edge">
<title>N4&#45;&gt;NN4_0</title>
<g id="a_edge3"><a xlink:title="4.21kB">
<path fill="none" stroke="black" d="M1239,-889.79C1239,-871.51 1239,-849.39 1239,-832.26"/>
<polygon fill="black" stroke="black" points="1242.5,-831.81 1239,-821.81 1235.5,-831.81 1242.5,-831.81"/>
</a>
</g>
<g id="a_edge3&#45;label"><a xlink:title="4.21kB">
<text text-anchor="middle" x="1266.5" y="-860.8" font-family="Times,serif" font-size="14.00"> 4.21kB</text>
</a>
</g>
</g>
<!-- N5 -->
<g id="node5" class="node">
<title>N5</title>
<g id="a_node5"><a xlink:title="encoding/base64.NewEncoding (4.17kB)">
<polygon fill="#ede1d9" stroke="#b25d20" points="836.5,-839 659.5,-839 659.5,-768 836.5,-768 836.5,-839"/>
<text text-anchor="middle" x="748" y="-819.8" font-family="Times,serif" font-size="19.00">base64</text>
<text text-anchor="middle" x="748" y="-798.8" font-family="Times,serif" font-size="19.00">NewEncoding</text>
<text text-anchor="middle" x="748" y="-777.8" font-family="Times,serif" font-size="19.00">4.17kB (16.35%)</text>
</a>
</g>
</g>
<!-- NN5_0 -->
<g id="NN5_0" class="node">
<title>NN5_0</title>
<g id="a_NN5_0"><a xlink:title="4.17kB">
<polygon fill="#f8f8f8" stroke="black" points="775,-702 725,-702 721,-698 721,-666 771,-666 775,-670 775,-702"/>
<polyline fill="none" stroke="black" points="771,-698 721,-698 "/>
<polyline fill="none" stroke="black" points="771,-698 771,-666 "/>
<polyline fill="none" stroke="black" points="771,-698 775,-702 "/>
<text text-anchor="middle" x="748" y="-682.1" font-family="Times,serif" font-size="8.00">352B</text>
</a>
</g>
</g>
<!-- N5&#45;&gt;NN5_0 -->
<g id="edge4" class="edge">
<title>N5&#45;&gt;NN5_0</title>
<g id="a_edge4"><a xlink:title="4.17kB">
<path fill="none" stroke="black" d="M748,-767.88C748,-750.11 748,-728.78 748,-712.2"/>
<polygon fill="black" stroke="black" points="751.5,-712.09 748,-702.09 744.5,-712.09 751.5,-712.09"/>
</a>
</g>
<g id="a_edge4&#45;label"><a xlink:title="4.17kB">
<text text-anchor="middle" x="775.5" y="-731.3" font-family="Times,serif" font-size="14.00"> 4.17kB</text>
</a>
</g>
</g>
<!-- N9 -->
<g id="node9" class="node">
<title>N9</title>
<g id="a_node9"><a xlink:title="encoding/base64.init (4.17kB)">
<polygon fill="#ede1d9" stroke="#b25d20" points="798.5,-943.5 697.5,-943.5 697.5,-907.5 798.5,-907.5 798.5,-943.5"/>
<text text-anchor="middle" x="748" y="-932.6" font-family="Times,serif" font-size="8.00">base64</text>
<text text-anchor="middle" x="748" y="-923.6" font-family="Times,serif" font-size="8.00">init</text>
<text text-anchor="middle" x="748" y="-914.6" font-family="Times,serif" font-size="8.00">0 of 4.17kB (16.35%)</text>
</a>
</g>
</g>
<!-- N6&#45;&gt;N9 -->
<g id="edge19" class="edge">
<title>N6&#45;&gt;N9</title>
<g id="a_edge19"><a xlink:title="runtime.doInit &#45;&gt; encoding/base64.init (4.17kB)">
<path fill="none" stroke="#b25d20" d="M748,-1011.61C748,-995.76 748,-972.09 748,-953.73"/>
<polygon fill="#b25d20" stroke="#b25d20" points="751.5,-953.63 748,-943.63 744.5,-953.63 751.5,-953.63"/>
</a>
</g>
<g id="a_edge19&#45;label"><a xlink:title="runtime.doInit &#45;&gt; encoding/base64.init (4.17kB)">
<text text-anchor="middle" x="775.5" y="-982.8" font-family="Times,serif" font-size="14.00"> 4.17kB</text>
</a>
</g>
</g>
<!-- N10 -->
<g id="node10" class="node">
<title>N10</title>
<g id="a_node10"><a xlink:title="github.com/google/pprof/profile.init (4.05kB)">
<polygon fill="#ede2da" stroke="#b26024" points="927.5,-943.5 826.5,-943.5 826.5,-907.5 927.5,-907.5 927.5,-943.5"/>
<text text-anchor="middle" x="877" y="-932.6" font-family="Times,serif" font-size="8.00">profile</text>
<text text-anchor="middle" x="877" y="-923.6" font-family="Times,serif" font-size="8.00">init</text>
<text text-anchor="middle" x="877" y="-914.6" font-family="Times,serif" font-size="8.00">0 of 4.05kB (15.89%)</text>
</a>
</g>
</g>
<!-- N6&#45;&gt;N10 -->
<g id="edge27" class="edge">
<title>N6&#45;&gt;N10</title>
<g id="a_edge27"><a xlink:title="runtime.doInit &#45;&gt; github.com/google/pprof/profile.init (4.05kB)">
<path fill="none" stroke="#b26024" d="M779.8,-1011.95C788.87,-1006.61 798.57,-1000.43 807,-994 823.84,-981.17 840.97,-964.71 854.08,-951.26"/>
<polygon fill="#b26024" stroke="#b26024" points="856.9,-953.38 861.29,-943.74 851.84,-948.53 856.9,-953.38"/>
</a>
</g>
<g id="a_edge27&#45;label"><a xlink:title="runtime.doInit &#45;&gt; github.com/google/pprof/profile.init (4.05kB)">
<text text-anchor="middle" x="851.5" y="-982.8" font-family="Times,serif" font-size="14.00"> 4.05kB</text>
</a>
</g>
</g>
<!-- N7 -->
<g id="node7" class="node">
<title>N7</title>
<g id="a_node7"><a xlink:title="regexp/syntax.(*parser).newRegexp (4.05kB)">
<polygon fill="#ede2da" stroke="#b26024" points="993.5,-179 816.5,-179 816.5,-87 993.5,-87 993.5,-179"/>
<text text-anchor="middle" x="905" y="-159.8" font-family="Times,serif" font-size="19.00">syntax</text>
<text text-anchor="middle" x="905" y="-138.8" font-family="Times,serif" font-size="19.00">(*parser)</text>
<text text-anchor="middle" x="905" y="-117.8" font-family="Times,serif" font-size="19.00">newRegexp</text>
<text text-anchor="middle" x="905" y="-96.8" font-family="Times,serif" font-size="19.00">4.05kB (15.89%)</text>
</a>
</g>
</g>
<!-- NN7_0 -->
<g id="NN7_0" class="node">
<title>NN7_0</title>
<g id="a_NN7_0"><a xlink:title="4.05kB">
<polygon fill="#f8f8f8" stroke="black" points="932,-36 882,-36 878,-32 878,0 928,0 932,-4 932,-36"/>
<polyline fill="none" stroke="black" points="928,-32 878,-32 "/>
<polyline fill="none" stroke="black" points="928,-32 928,0 "/>
<polyline fill="none" stroke="black" points="928,-32 932,-36 "/>
<text text-anchor="middle" x="905" y="-16.1" font-family="Times,serif" font-size="8.00">112B</text>
</a>
</g>
</g>
<!-- N7&#45;&gt;NN7_0 -->
<g id="edge5" class="edge">
<title>N7&#45;&gt;NN7_0</title>
<g id="a_edge5"><a xlink:title="4.05kB">
<path fill="none" stroke="black" d="M905,-86.69C905,-73.06 905,-58.52 905,-46.42"/>
<polygon fill="black" stroke="black" points="908.5,-46.1 905,-36.1 901.5,-46.1 908.5,-46.1"/>
</a>
</g>
<g id="a_edge5&#45;label"><a xlink:title="4.05kB">
<text text-anchor="middle" x="932.5" y="-57.8" font-family="Times,serif" font-size="14.00"> 4.05kB</text>
</a>
</g>
</g>
<!-- N8 -->
<g id="node8" class="node">
<title>N8</title>
<g id="a_node8"><a xlink:title="runtime.systemstack (4.21kB)">
<polygon fill="#ede1d9" stroke="#b25c1f" points="1289.5,-1270.5 1188.5,-1270.5 1188.5,-1234.5 1289.5,-1234.5 1289.5,-1270.5"/>
<text text-anchor="middle" x="1239" y="-1259.6" font-family="Times,serif" font-size="8.00">runtime</text>
<text text-anchor="middle" x="1239" y="-1250.6" font-family="Times,serif" font-size="8.00">systemstack</text>
<text text-anchor="middle" x="1239" y="-1241.6" font-family="Times,serif" font-size="8.00">0 of 4.21kB (16.48%)</text>
</a>
</g>
</g>
<!-- N20 -->
<g id="node20" class="node">
<title>N20</title>
<g id="a_node20"><a xlink:title="runtime.newproc.func1 (4.21kB)">
<polygon fill="#ede1d9" stroke="#b25c1f" points="1289.5,-1143 1188.5,-1143 1188.5,-1099 1289.5,-1099 1289.5,-1143"/>
<text text-anchor="middle" x="1239" y="-1132.6" font-family="Times,serif" font-size="8.00">runtime</text>
<text text-anchor="middle" x="1239" y="-1123.6" font-family="Times,serif" font-size="8.00">newproc</text>
<text text-anchor="middle" x="1239" y="-1114.6" font-family="Times,serif" font-size="8.00">func1</text>
<text text-anchor="middle" x="1239" y="-1105.6" font-family="Times,serif" font-size="8.00">0 of 4.21kB (16.48%)</text>
</a>
</g>
</g>
<!-- N8&#45;&gt;N20 -->
<g id="edge17" class="edge">
<title>N8&#45;&gt;N20</title>
<g id="a_edge17"><a xlink:title="runtime.systemstack &#45;&gt; runtime.newproc.func1 (4.21kB)">
<path fill="none" stroke="#b25c1f" d="M1239,-1234.3C1239,-1213.71 1239,-1178.83 1239,-1153.39"/>
<polygon fill="#b25c1f" stroke="#b25c1f" points="1242.5,-1153.14 1239,-1143.14 1235.5,-1153.14 1242.5,-1153.14"/>
</a>
</g>
<g id="a_edge17&#45;label"><a xlink:title="runtime.systemstack &#45;&gt; runtime.newproc.func1 (4.21kB)">
<text text-anchor="middle" x="1266.5" y="-1164.8" font-family="Times,serif" font-size="14.00"> 4.21kB</text>
</a>
</g>
</g>
<!-- N9&#45;&gt;N5 -->
<g id="edge18" class="edge">
<title>N9&#45;&gt;N5</title>
<g id="a_edge18"><a xlink:title="encoding/base64.init &#45;&gt; encoding/base64.NewEncoding (4.17kB)">
<path fill="none" stroke="#b25d20" d="M748,-907.31C748,-892.3 748,-869.83 748,-849.72"/>
<polygon fill="#b25d20" stroke="#b25d20" points="751.5,-849.47 748,-839.47 744.5,-849.47 751.5,-849.47"/>
</a>
</g>
<g id="a_edge18&#45;label"><a xlink:title="encoding/base64.init &#45;&gt; encoding/base64.NewEncoding (4.17kB)">
<text text-anchor="middle" x="775.5" y="-860.8" font-family="Times,serif" font-size="14.00"> 4.17kB</text>
</a>
</g>
</g>
<!-- N12 -->
<g id="node12" class="node">
<title>N12</title>
<g id="a_node12"><a xlink:title="regexp.MustCompile (4.05kB)">
<polygon fill="#ede2da" stroke="#b26024" points="955.5,-821.5 854.5,-821.5 854.5,-785.5 955.5,-785.5 955.5,-821.5"/>
<text text-anchor="middle" x="905" y="-810.6" font-family="Times,serif" font-size="8.00">regexp</text>
<text text-anchor="middle" x="905" y="-801.6" font-family="Times,serif" font-size="8.00">MustCompile</text>
<text text-anchor="middle" x="905" y="-792.6" font-family="Times,serif" font-size="8.00">0 of 4.05kB (15.89%)</text>
</a>
</g>
</g>
<!-- N10&#45;&gt;N12 -->
<g id="edge20" class="edge">
<title>N10&#45;&gt;N12</title>
<g id="a_edge20"><a xlink:title="github.com/google/pprof/profile.init &#45;&gt; regexp.MustCompile (4.05kB)">
<path fill="none" stroke="#b26024" d="M881.01,-907.31C885.63,-887.52 893.27,-854.79 898.68,-831.58"/>
<polygon fill="#b26024" stroke="#b26024" points="902.13,-832.19 901,-821.66 895.31,-830.6 902.13,-832.19"/>
</a>
</g>
<g id="a_edge20&#45;label"><a xlink:title="github.com/google/pprof/profile.init &#45;&gt; regexp.MustCompile (4.05kB)">
<text text-anchor="middle" x="919.5" y="-860.8" font-family="Times,serif" font-size="14.00"> 4.05kB</text>
</a>
</g>
</g>
<!-- N11 -->
<g id="node11" class="node">
<title>N11</title>
<g id="a_node11"><a xlink:title="regexp.Compile (4.05kB)">
<polygon fill="#ede2da" stroke="#b26024" points="955.5,-702 854.5,-702 854.5,-666 955.5,-666 955.5,-702"/>
<text text-anchor="middle" x="905" y="-691.1" font-family="Times,serif" font-size="8.00">regexp</text>
<text text-anchor="middle" x="905" y="-682.1" font-family="Times,serif" font-size="8.00">Compile</text>
<text text-anchor="middle" x="905" y="-673.1" font-family="Times,serif" font-size="8.00">0 of 4.05kB (15.89%)</text>
</a>
</g>
</g>
<!-- N13 -->
<g id="node13" class="node">
<title>N13</title>
<g id="a_node13"><a xlink:title="regexp.compile (4.05kB)">
<polygon fill="#ede2da" stroke="#b26024" points="955.5,-615 854.5,-615 854.5,-579 955.5,-579 955.5,-615"/>
<text text-anchor="middle" x="905" y="-604.1" font-family="Times,serif" font-size="8.00">regexp</text>
<text text-anchor="middle" x="905" y="-595.1" font-family="Times,serif" font-size="8.00">compile</text>
<text text-anchor="middle" x="905" y="-586.1" font-family="Times,serif" font-size="8.00">0 of 4.05kB (15.89%)</text>
</a>
</g>
</g>
<!-- N11&#45;&gt;N13 -->
<g id="edge21" class="edge">
<title>N11&#45;&gt;N13</title>
<g id="a_edge21"><a xlink:title="regexp.Compile &#45;&gt; regexp.compile (4.05kB)">
<path fill="none" stroke="#b26024" d="M905,-665.8C905,-654.16 905,-638.55 905,-625.24"/>
<polygon fill="#b26024" stroke="#b26024" points="908.5,-625.18 905,-615.18 901.5,-625.18 908.5,-625.18"/>
</a>
</g>
<g id="a_edge21&#45;label"><a xlink:title="regexp.Compile &#45;&gt; regexp.compile (4.05kB)">
<text text-anchor="middle" x="932.5" y="-636.8" font-family="Times,serif" font-size="14.00"> 4.05kB</text>
</a>
</g>
</g>
<!-- N12&#45;&gt;N11 -->
<g id="edge22" class="edge">
<title>N12&#45;&gt;N11</title>
<g id="a_edge22"><a xlink:title="regexp.MustCompile &#45;&gt; regexp.Compile (4.05kB)">
<path fill="none" stroke="#b26024" d="M905,-785.41C905,-766.27 905,-734.96 905,-712.39"/>
<polygon fill="#b26024" stroke="#b26024" points="908.5,-712.11 905,-702.11 901.5,-712.11 908.5,-712.11"/>
</a>
</g>
<g id="a_edge22&#45;label"><a xlink:title="regexp.MustCompile &#45;&gt; regexp.Compile (4.05kB)">
<text text-anchor="middle" x="932.5" y="-738.8" font-family="Times,serif" font-size="14.00"> 4.05kB</text>
<text text-anchor="middle" x="932.5" y="-723.8" font-family="Times,serif" font-size="14.00"> (inline)</text>
</a>
</g>
</g>
<!-- N15 -->
<g id="node15" class="node">
<title>N15</title>
<g id="a_node15"><a xlink:title="regexp/syntax.Parse (4.05kB)">
<polygon fill="#ede2da" stroke="#b26024" points="955.5,-513 854.5,-513 854.5,-477 955.5,-477 955.5,-513"/>
<text text-anchor="middle" x="905" y="-502.1" font-family="Times,serif" font-size="8.00">syntax</text>
<text text-anchor="middle" x="905" y="-493.1" font-family="Times,serif" font-size="8.00">Parse</text>
<text text-anchor="middle" x="905" y="-484.1" font-family="Times,serif" font-size="8.00">0 of 4.05kB (15.89%)</text>
</a>
</g>
</g>
<!-- N13&#45;&gt;N15 -->
<g id="edge23" class="edge">
<title>N13&#45;&gt;N15</title>
<g id="a_edge23"><a xlink:title="regexp.compile &#45;&gt; regexp/syntax.Parse (4.05kB)">
<path fill="none" stroke="#b26024" d="M905,-578.58C905,-563.38 905,-541.07 905,-523.46"/>
<polygon fill="#b26024" stroke="#b26024" points="908.5,-523.22 905,-513.22 901.5,-523.22 908.5,-523.22"/>
</a>
</g>
<g id="a_edge23&#45;label"><a xlink:title="regexp.compile &#45;&gt; regexp/syntax.Parse (4.05kB)">
<text text-anchor="middle" x="932.5" y="-549.8" font-family="Times,serif" font-size="14.00"> 4.05kB</text>
<text text-anchor="middle" x="932.5" y="-534.8" font-family="Times,serif" font-size="14.00"> (inline)</text>
</a>
</g>
</g>
<!-- N14 -->
<g id="node14" class="node">
<title>N14</title>
<g id="a_node14"><a xlink:title="regexp/syntax.(*parser).op (4.05kB)">
<polygon fill="#ede2da" stroke="#b26024" points="955.5,-289 854.5,-289 854.5,-245 955.5,-245 955.5,-289"/>
<text text-anchor="middle" x="905" y="-278.6" font-family="Times,serif" font-size="8.00">syntax</text>
<text text-anchor="middle" x="905" y="-269.6" font-family="Times,serif" font-size="8.00">(*parser)</text>
<text text-anchor="middle" x="905" y="-260.6" font-family="Times,serif" font-size="8.00">op</text>
<text text-anchor="middle" x="905" y="-251.6" font-family="Times,serif" font-size="8.00">0 of 4.05kB (15.89%)</text>
</a>
</g>
</g>
<!-- N14&#45;&gt;N7 -->
<g id="edge24" class="edge">
<title>N14&#45;&gt;N7</title>
<g id="a_edge24"><a xlink:title="regexp/syntax.(*parser).op &#45;&gt; regexp/syntax.(*parser).newRegexp (4.05kB)">
<path fill="none" stroke="#b26024" d="M905,-244.79C905,-229.77 905,-208.9 905,-189.31"/>
<polygon fill="#b26024" stroke="#b26024" points="908.5,-189.22 905,-179.22 901.5,-189.22 908.5,-189.22"/>
</a>
</g>
<g id="a_edge24&#45;label"><a xlink:title="regexp/syntax.(*parser).op &#45;&gt; regexp/syntax.(*parser).newRegexp (4.05kB)">
<text text-anchor="middle" x="932.5" y="-215.8" font-family="Times,serif" font-size="14.00"> 4.05kB</text>
<text text-anchor="middle" x="932.5" y="-200.8" font-family="Times,serif" font-size="14.00"> (inline)</text>
</a>
</g>
</g>
<!-- N16 -->
<g id="node16" class="node">
<title>N16</title>
<g id="a_node16"><a xlink:title="regexp/syntax.parse (4.05kB)">
<polygon fill="#ede2da" stroke="#b26024" points="955.5,-401 854.5,-401 854.5,-365 955.5,-365 955.5,-401"/>
<text text-anchor="middle" x="905" y="-390.1" font-family="Times,serif" font-size="8.00">syntax</text>
<text text-anchor="middle" x="905" y="-381.1" font-family="Times,serif" font-size="8.00">parse</text>
<text text-anchor="middle" x="905" y="-372.1" font-family="Times,serif" font-size="8.00">0 of 4.05kB (15.89%)</text>
</a>
</g>
</g>
<!-- N15&#45;&gt;N16 -->
<g id="edge25" class="edge">
<title>N15&#45;&gt;N16</title>
<g id="a_edge25"><a xlink:title="regexp/syntax.Parse &#45;&gt; regexp/syntax.parse (4.05kB)">
<path fill="none" stroke="#b26024" d="M905,-476.81C905,-459.21 905,-431.61 905,-411.07"/>
<polygon fill="#b26024" stroke="#b26024" points="908.5,-411.07 905,-401.07 901.5,-411.07 908.5,-411.07"/>
</a>
</g>
<g id="a_edge25&#45;label"><a xlink:title="regexp/syntax.Parse &#45;&gt; regexp/syntax.parse (4.05kB)">
<text text-anchor="middle" x="932.5" y="-447.8" font-family="Times,serif" font-size="14.00"> 4.05kB</text>
</a>
</g>
</g>
<!-- N16&#45;&gt;N14 -->
<g id="edge26" class="edge">
<title>N16&#45;&gt;N14</title>
<g id="a_edge26"><a xlink:title="regexp/syntax.parse &#45;&gt; regexp/syntax.(*parser).op (4.05kB)">
<path fill="none" stroke="#b26024" d="M905,-364.69C905,-347.42 905,-320.51 905,-299.46"/>
<polygon fill="#b26024" stroke="#b26024" points="908.5,-299.37 905,-289.37 901.5,-299.37 908.5,-299.37"/>
</a>
</g>
<g id="a_edge26&#45;label"><a xlink:title="regexp/syntax.parse &#45;&gt; regexp/syntax.(*parser).op (4.05kB)">
<text text-anchor="middle" x="932.5" y="-310.8" font-family="Times,serif" font-size="14.00"> 4.05kB</text>
</a>
</g>
</g>
<!-- N18 -->
<g id="node18" class="node">
<title>N18</title>
<g id="a_node18"><a xlink:title="runtime.mstart1 (9.04kB)">
<polygon fill="#eddbd5" stroke="#b22f00" points="1132.5,-1048 1031.5,-1048 1031.5,-1012 1132.5,-1012 1132.5,-1048"/>
<text text-anchor="middle" x="1082" y="-1037.1" font-family="Times,serif" font-size="8.00">runtime</text>
<text text-anchor="middle" x="1082" y="-1028.1" font-family="Times,serif" font-size="8.00">mstart1</text>
<text text-anchor="middle" x="1082" y="-1019.1" font-family="Times,serif" font-size="8.00">0 of 9.04kB (35.42%)</text>
</a>
</g>
</g>
<!-- N17&#45;&gt;N18 -->
<g id="edge7" class="edge">
<title>N17&#45;&gt;N18</title>
<g id="a_edge7"><a xlink:title="runtime.mstart0 &#45;&gt; runtime.mstart1 (9.04kB)">
<path fill="none" stroke="#b22f00" stroke-width="2" d="M1082,-1102.84C1082,-1090.28 1082,-1072.98 1082,-1058.5"/>
<polygon fill="#b22f00" stroke="#b22f00" stroke-width="2" points="1085.5,-1058.11 1082,-1048.11 1078.5,-1058.11 1085.5,-1058.11"/>
</a>
</g>
<g id="a_edge7&#45;label"><a xlink:title="runtime.mstart0 &#45;&gt; runtime.mstart1 (9.04kB)">
<text text-anchor="middle" x="1109.5" y="-1069.8" font-family="Times,serif" font-size="14.00"> 9.04kB</text>
</a>
</g>
</g>
<!-- N23 -->
<g id="node23" class="node">
<title>N23</title>
<g id="a_node23"><a xlink:title="runtime.schedule (9.04kB)">
<polygon fill="#eddbd5" stroke="#b22f00" points="1132.5,-943.5 1031.5,-943.5 1031.5,-907.5 1132.5,-907.5 1132.5,-943.5"/>
<text text-anchor="middle" x="1082" y="-932.6" font-family="Times,serif" font-size="8.00">runtime</text>
<text text-anchor="middle" x="1082" y="-923.6" font-family="Times,serif" font-size="8.00">schedule</text>
<text text-anchor="middle" x="1082" y="-914.6" font-family="Times,serif" font-size="8.00">0 of 9.04kB (35.42%)</text>
</a>
</g>
</g>
<!-- N18&#45;&gt;N23 -->
<g id="edge8" class="edge">
<title>N18&#45;&gt;N23</title>
<g id="a_edge8"><a xlink:title="runtime.mstart1 &#45;&gt; runtime.schedule (9.04kB)">
<path fill="none" stroke="#b22f00" stroke-width="2" d="M1082,-1011.61C1082,-995.76 1082,-972.09 1082,-953.73"/>
<polygon fill="#b22f00" stroke="#b22f00" stroke-width="2" points="1085.5,-953.63 1082,-943.63 1078.5,-953.63 1085.5,-953.63"/>
</a>
</g>
<g id="a_edge8&#45;label"><a xlink:title="runtime.mstart1 &#45;&gt; runtime.schedule (9.04kB)">
<text text-anchor="middle" x="1109.5" y="-982.8" font-family="Times,serif" font-size="14.00"> 9.04kB</text>
</a>
</g>
</g>
<!-- N19 -->
<g id="node19" class="node">
<title>N19</title>
<g id="a_node19"><a xlink:title="runtime.newm (9.04kB)">
<polygon fill="#eddbd5" stroke="#b22f00" points="1132.5,-513 1031.5,-513 1031.5,-477 1132.5,-477 1132.5,-513"/>
<text text-anchor="middle" x="1082" y="-502.1" font-family="Times,serif" font-size="8.00">runtime</text>
<text text-anchor="middle" x="1082" y="-493.1" font-family="Times,serif" font-size="8.00">newm</text>
<text text-anchor="middle" x="1082" y="-484.1" font-family="Times,serif" font-size="8.00">0 of 9.04kB (35.42%)</text>
</a>
</g>
</g>
<!-- N19&#45;&gt;N2 -->
<g id="edge9" class="edge">
<title>N19&#45;&gt;N2</title>
<g id="a_edge9"><a xlink:title="runtime.newm &#45;&gt; runtime.allocm (9.04kB)">
<path fill="none" stroke="#b22f00" stroke-width="2" d="M1082,-476.81C1082,-465.82 1082,-450.91 1082,-436.26"/>
<polygon fill="#b22f00" stroke="#b22f00" stroke-width="2" points="1085.5,-436.21 1082,-426.21 1078.5,-436.21 1085.5,-436.21"/>
</a>
</g>
<g id="a_edge9&#45;label"><a xlink:title="runtime.newm &#45;&gt; runtime.allocm (9.04kB)">
<text text-anchor="middle" x="1109.5" y="-447.8" font-family="Times,serif" font-size="14.00"> 9.04kB</text>
</a>
</g>
</g>
<!-- N21 -->
<g id="node21" class="node">
<title>N21</title>
<g id="a_node21"><a xlink:title="runtime.newproc1 (4.21kB)">
<polygon fill="#ede1d9" stroke="#b25c1f" points="1289.5,-1048 1188.5,-1048 1188.5,-1012 1289.5,-1012 1289.5,-1048"/>
<text text-anchor="middle" x="1239" y="-1037.1" font-family="Times,serif" font-size="8.00">runtime</text>
<text text-anchor="middle" x="1239" y="-1028.1" font-family="Times,serif" font-size="8.00">newproc1</text>
<text text-anchor="middle" x="1239" y="-1019.1" font-family="Times,serif" font-size="8.00">0 of 4.21kB (16.48%)</text>
</a>
</g>
</g>
<!-- N20&#45;&gt;N21 -->
<g id="edge15" class="edge">
<title>N20&#45;&gt;N21</title>
<g id="a_edge15"><a xlink:title="runtime.newproc.func1 &#45;&gt; runtime.newproc1 (4.21kB)">
<path fill="none" stroke="#b25c1f" d="M1239,-1098.91C1239,-1086.78 1239,-1071.41 1239,-1058.36"/>
<polygon fill="#b25c1f" stroke="#b25c1f" points="1242.5,-1058.07 1239,-1048.07 1235.5,-1058.07 1242.5,-1058.07"/>
</a>
</g>
<g id="a_edge15&#45;label"><a xlink:title="runtime.newproc.func1 &#45;&gt; runtime.newproc1 (4.21kB)">
<text text-anchor="middle" x="1266.5" y="-1069.8" font-family="Times,serif" font-size="14.00"> 4.21kB</text>
</a>
</g>
</g>
<!-- N21&#45;&gt;N4 -->
<g id="edge16" class="edge">
<title>N21&#45;&gt;N4</title>
<g id="a_edge16"><a xlink:title="runtime.newproc1 &#45;&gt; runtime.malg (4.21kB)">
<path fill="none" stroke="#b25c1f" d="M1239,-1011.61C1239,-1000.49 1239,-985.52 1239,-971.23"/>
<polygon fill="#b25c1f" stroke="#b25c1f" points="1242.5,-971.01 1239,-961.01 1235.5,-971.01 1242.5,-971.01"/>
</a>
</g>
<g id="a_edge16&#45;label"><a xlink:title="runtime.newproc1 &#45;&gt; runtime.malg (4.21kB)">
<text text-anchor="middle" x="1266.5" y="-982.8" font-family="Times,serif" font-size="14.00"> 4.21kB</text>
</a>
</g>
</g>
<!-- N22 -->
<g id="node22" class="node">
<title>N22</title>
<g id="a_node22"><a xlink:title="runtime.resetspinning (9.04kB)">
<polygon fill="#eddbd5" stroke="#b22f00" points="1132.5,-821.5 1031.5,-821.5 1031.5,-785.5 1132.5,-785.5 1132.5,-821.5"/>
<text text-anchor="middle" x="1082" y="-810.6" font-family="Times,serif" font-size="8.00">runtime</text>
<text text-anchor="middle" x="1082" y="-801.6" font-family="Times,serif" font-size="8.00">resetspinning</text>
<text text-anchor="middle" x="1082" y="-792.6" font-family="Times,serif" font-size="8.00">0 of 9.04kB (35.42%)</text>
</a>
</g>
</g>
<!-- N25 -->
<g id="node25" class="node">
<title>N25</title>
<g id="a_node25"><a xlink:title="runtime.wakep (9.04kB)">
<polygon fill="#eddbd5" stroke="#b22f00" points="1132.5,-702 1031.5,-702 1031.5,-666 1132.5,-666 1132.5,-702"/>
<text text-anchor="middle" x="1082" y="-691.1" font-family="Times,serif" font-size="8.00">runtime</text>
<text text-anchor="middle" x="1082" y="-682.1" font-family="Times,serif" font-size="8.00">wakep</text>
<text text-anchor="middle" x="1082" y="-673.1" font-family="Times,serif" font-size="8.00">0 of 9.04kB (35.42%)</text>
</a>
</g>
</g>
<!-- N22&#45;&gt;N25 -->
<g id="edge10" class="edge">
<title>N22&#45;&gt;N25</title>
<g id="a_edge10"><a xlink:title="runtime.resetspinning &#45;&gt; runtime.wakep (9.04kB)">
<path fill="none" stroke="#b22f00" stroke-width="2" d="M1082,-785.41C1082,-766.27 1082,-734.96 1082,-712.39"/>
<polygon fill="#b22f00" stroke="#b22f00" stroke-width="2" points="1085.5,-712.11 1082,-702.11 1078.5,-712.11 1085.5,-712.11"/>
</a>
</g>
<g id="a_edge10&#45;label"><a xlink:title="runtime.resetspinning &#45;&gt; runtime.wakep (9.04kB)">
<text text-anchor="middle" x="1109.5" y="-731.3" font-family="Times,serif" font-size="14.00"> 9.04kB</text>
</a>
</g>
</g>
<!-- N23&#45;&gt;N22 -->
<g id="edge11" class="edge">
<title>N23&#45;&gt;N22</title>
<g id="a_edge11"><a xlink:title="runtime.schedule &#45;&gt; runtime.resetspinning (9.04kB)">
<path fill="none" stroke="#b22f00" stroke-width="2" d="M1082,-907.31C1082,-887.61 1082,-855.08 1082,-831.89"/>
<polygon fill="#b22f00" stroke="#b22f00" stroke-width="2" points="1085.5,-831.66 1082,-821.66 1078.5,-831.66 1085.5,-831.66"/>
</a>
</g>
<g id="a_edge11&#45;label"><a xlink:title="runtime.schedule &#45;&gt; runtime.resetspinning (9.04kB)">
<text text-anchor="middle" x="1109.5" y="-860.8" font-family="Times,serif" font-size="14.00"> 9.04kB</text>
</a>
</g>
</g>
<!-- N24 -->
<g id="node24" class="node">
<title>N24</title>
<g id="a_node24"><a xlink:title="runtime.startm (9.04kB)">
<polygon fill="#eddbd5" stroke="#b22f00" points="1132.5,-615 1031.5,-615 1031.5,-579 1132.5,-579 1132.5,-615"/>
<text text-anchor="middle" x="1082" y="-604.1" font-family="Times,serif" font-size="8.00">runtime</text>
<text text-anchor="middle" x="1082" y="-595.1" font-family="Times,serif" font-size="8.00">startm</text>
<text text-anchor="middle" x="1082" y="-586.1" font-family="Times,serif" font-size="8.00">0 of 9.04kB (35.42%)</text>
</a>
</g>
</g>
<!-- N24&#45;&gt;N19 -->
<g id="edge12" class="edge">
<title>N24&#45;&gt;N19</title>
<g id="a_edge12"><a xlink:title="runtime.startm &#45;&gt; runtime.newm (9.04kB)">
<path fill="none" stroke="#b22f00" stroke-width="2" d="M1082,-578.58C1082,-563.38 1082,-541.07 1082,-523.46"/>
<polygon fill="#b22f00" stroke="#b22f00" stroke-width="2" points="1085.5,-523.22 1082,-513.22 1078.5,-523.22 1085.5,-523.22"/>
</a>
</g>
<g id="a_edge12&#45;label"><a xlink:title="runtime.startm &#45;&gt; runtime.newm (9.04kB)">
<text text-anchor="middle" x="1109.5" y="-542.3" font-family="Times,serif" font-size="14.00"> 9.04kB</text>
</a>
</g>
</g>
<!-- N25&#45;&gt;N24 -->
<g id="edge13" class="edge">
<title>N25&#45;&gt;N24</title>
<g id="a_edge13"><a xlink:title="runtime.wakep &#45;&gt; runtime.startm (9.04kB)">
<path fill="none" stroke="#b22f00" stroke-width="2" d="M1082,-665.8C1082,-654.16 1082,-638.55 1082,-625.24"/>
<polygon fill="#b22f00" stroke="#b22f00" stroke-width="2" points="1085.5,-625.18 1082,-615.18 1078.5,-625.18 1085.5,-625.18"/>
</a>
</g>
<g id="a_edge13&#45;label"><a xlink:title="runtime.wakep &#45;&gt; runtime.startm (9.04kB)">
<text text-anchor="middle" x="1109.5" y="-636.8" font-family="Times,serif" font-size="14.00"> 9.04kB</text>
</a>
</g>
</g>
</g>
</g></svg>
